PathFileType	4	(X/Y/Z)	C:\Users\chris\Documents\GitHub\baseballds\vids\pitch5_Sports2D\pitch5_Sports2D_m_person00.trc
DataRate	CameraRate	NumFrames	NumMarkers	Units	OrigDataRate	OrigDataStartFrame	OrigNumFrames
30	30	8	22	m	30	55	149
Frame#	Time	Hip			RHip			RKnee			RAnkle			RBigToe			RSmallToe			RHeel			LHip			LKnee			LAnkle			LBigToe			LSmallToe			LHeel			Neck			Head			Nose			RShoulder			RElbow			RWrist			LShoulder			LElbow			LWrist		
		X1	Y1	Z1	X2	Y2	Z2	X3	Y3	Z3	X4	Y4	Z4	X5	Y5	Z5	X6	Y6	Z6	X7	Y7	Z7	X8	Y8	Z8	X9	Y9	Z9	X10	Y10	Z10	X11	Y11	Z11	X12	Y12	Z12	X13	Y13	Z13	X14	Y14	Z14	X15	Y15	Z15	X16	Y16	Z16	X17	Y17	Z17	X18	Y18	Z18	X19	Y19	Z19	X20	Y20	Z20	X21	Y21	Z21	X22	Y22	Z22
55	1.8333333333333333	1.5857362318682107	0.9486884191924625	0.0	1.4724995091602846	0.9035059933183628	0.0	1.4857877571605709	0.47157640337682116	0.0	1.4824145813203222	0.09650060337745227	0.0	1.5036068303940229	-0.03634933722358387	0.0	1.4275440224008507	-0.0312576741338355	0.0	1.499692223264552	0.04574327897418668	0.0	1.6992358088043942	0.9154069955997204	0.0	1.757997941794964	0.4934896908594297	0.0	1.8471504122544204	0.1360413035433167	0.0	1.7692207054938585	-0.006793226107606407	0.0	1.8465007995146134	-0.00525475548047821	0.0	1.8746036068863428	0.0844987795055741	0.0	1.5534889001864651	1.5753593527675265	0.0	1.597682229958687	1.8518810856572	0.0	1.7058881508978327	1.7037480059920191	0.0	1.353887248069796	1.4655172343760137	0.0	1.3002641906224721	1.1582985267991521	0.0	1.4867130710569312	1.1910846621552538	0.0	1.7565087567096787	1.4835761015761917	0.0	1.841754173476028	1.1949405936105728	0.0	1.7215464315985978	1.1474039557038476	0.0
56	1.8666666666666667	1.5877082716175215	0.9503556416190406	0.0	1.4736124923852787	0.9067217010551173	0.0	1.4874475909161746	0.4716633713019231	0.0	1.4839052943957114	0.09721147087936863	0.0	1.5067085289374067	-0.034288538306272064	0.0	1.4287027923911482	-0.030097860569758012	0.0	1.5007453943701106	0.04856844813711454	0.0	1.7006902019211045	0.919515823609285	0.0	1.758951641561401	0.49503222910826267	0.0	1.8463249965489965	0.13346803124179812	0.0	1.770165767639813	-0.008699420201533579	0.0	1.847638193362854	-0.005306012576865662	0.0	1.8768893425289785	0.0834375151201284	0.0	1.5547175524614731	1.575595878894646	0.0	1.5969598250809889	1.8519689499895517	0.0	1.7073221752538505	1.704671505039983	0.0	1.3564225504869207	1.4641431102435707	0.0	1.3025084823774946	1.1559926151774127	0.0	1.488865412148906	1.1936056079570088	0.0	1.7576513999309786	1.4848149471688474	0.0	1.8408264909735927	1.195299285997194	0.0	1.7253091059183745	1.1444923245684202	0.0
57	1.9	1.5898243226085353	0.9500730747773136	0.0	1.4745858431209922	0.9064377331333727	0.0	1.488539248819415	0.471080925731004	0.0	1.4854504305634526	0.0942301089357245	0.0	1.5077439812513016	-0.0343488343393169	0.0	1.4303253395742481	-0.031959478092546456	0.0	1.5030999821813487	0.04350058692113175	0.0	1.7033594006868829	0.9207194878539229	0.0	1.7595852918430686	0.49656477453425935	0.0	1.8455934898791735	0.1322382555664732	0.0	1.7711307625913533	-0.009933127997277462	0.0	1.8476071380189445	-0.0048532784897590735	0.0	1.8763413269017906	0.08306325395503908	0.0	1.5552666856700452	1.5747634358234825	0.0	1.5993370016197948	1.8512965029136341	0.0	1.708992014206175	1.7035371348652117	0.0	1.3584846876214178	1.4629772466257938	0.0	1.3032643336085932	1.1538172006607477	0.0	1.4891238073857538	1.1976042586180702	0.0	1.7576726251660348	1.485435861339985	0.0	1.841713709930311	1.1944803774387676	0.0	1.7297679975480516	1.1442150631064951	0.0
58	1.9333333333333333	1.5923132104291573	0.9501060534247712	0.0	1.4762670076945854	0.9060038561375097	0.0	1.4893159430687892	0.47106531654656886	0.0	1.4869428278303078	0.0901501420783666	0.0	1.5070692674059305	-0.03694422297596636	0.0	1.4315333555137104	-0.0354901873926132	0.0	1.5062022333455354	0.03658606092984383	0.0	1.706750329393145	0.9199029584238096	0.0	1.7604253808194845	0.4961817234005324	0.0	1.8462518277230022	0.13113051224748326	0.0	1.7710650603764864	-0.011033546862444501	0.0	1.8462967160834673	-0.005479304739491931	0.0	1.8756327999967135	0.08186817307628354	0.0	1.556492785966937	1.5735875063978415	0.0	1.6028594263796911	1.8506531476984263	0.0	1.7106131737813595	1.7019350749118847	0.0	1.3598421909260434	1.4619570272989293	0.0	1.3043279097864975	1.1523343693644343	0.0	1.490320122708582	1.2019161008307544	0.0	1.7580892704638413	1.4845066876277446	0.0	1.844475481996737	1.1930152973996968	0.0	1.7316010084545423	1.1469611552429129	0.0
59	1.9666666666666666	1.5943475029989378	0.9513581661752446	0.0	1.478818491708493	0.9090157637863514	0.0	1.4896909335872948	0.4723311688621948	0.0	1.4876312785975967	0.08902994407735024	0.0	1.5067799784749796	-0.04161064023054225	0.0	1.4320710852926795	-0.03845786649637517	0.0	1.5082482403610564	0.0360962441183769	0.0	1.7098673383974434	0.9202186734545178	0.0	1.7619256670304768	0.4948584204112411	0.0	1.8477898999646576	0.12958550706535193	0.0	1.7698787303272239	-0.01215586546321227	0.0	1.8452359677042192	-0.0066416834456670066	0.0	1.878107019047463	0.07926236508956724	0.0	1.5594191244941187	1.5735304163613202	0.0	1.6051276940127044	1.8500363718723987	0.0	1.7123717690120606	1.7011284107971085	0.0	1.361461730703665	1.4617552190838483	0.0	1.3068081159211316	1.1529135999737048	0.0	1.4949061653645166	1.20455210795355	0.0	1.760468515604231	1.4826959274322336	0.0	1.847376159712578	1.1906858544605596	0.0	1.730919363913582	1.149837181257971	0.0
60	2.0	1.595343206329715	0.9518407265732832	0.0	1.481490333334348	0.9122481083458507	0.0	1.4898029574196092	0.4732215487505272	0.0	1.487676279330967	0.09026283436655763	0.0	1.506481811105475	-0.04473620636896269	0.0	1.431657148788733	-0.03932954548700564	0.0	1.508982406476113	0.038463036114814726	0.0	1.711970740988589	0.9212071370201992	0.0	1.7639534621375053	0.494529209722517	0.0	1.8489828687040442	0.13025944598447464	0.0	1.7689261844459343	-0.012038003527868352	0.0	1.8448443097423388	-0.0065914035328435575	0.0	1.881592499358089	0.07778589894744597	0.0	1.5626677503642024	1.5743960241332058	0.0	1.6072232447556785	1.848955848515123	0.0	1.7145160668519333	1.700463983056909	0.0	1.3640383270790712	1.462878055830556	0.0	1.309336906537125	1.1559127727484393	0.0	1.4991952786596556	1.2044562087959327	0.0	1.7639359590159513	1.4808335618294488	0.0	1.8499601613857033	1.1886957497164072	0.0	1.7303031274922798	1.1519571981986143	0.0
61	2.033333333333333	1.5959960525017913	0.9507346937732764	0.0	1.4834775516150367	0.9120032587622001	0.0	1.4909118505692078	0.4719846550695802	0.0	1.4882682307460935	0.09110132889310574	0.0	1.5049956413202623	-0.043654997562189574	0.0	1.430428003935308	-0.038484646110142226	0.0	1.5093394072367892	0.03788898547966468	0.0	1.7132873420962582	0.9207698838840663	0.0	1.7659104558290897	0.49469196025268114	0.0	1.8499094987303621	0.13375974083626896	0.0	1.7691357920834754	-0.010672177645021222	0.0	1.8448038330802319	-0.00568046268394499	0.0	1.8823127564554671	0.07903543961408914	0.0	1.5645492236634928	1.5747504199368065	0.0	1.6107162675439275	1.8479390087420273	0.0	1.7165871013843832	1.6986221851412155	0.0	1.36751034441218	1.4645525445187868	0.0	1.3112488540847205	1.1584037633844715	0.0	1.4999702629080343	1.2044310867256056	0.0	1.7665320863264586	1.4798835432150337	0.0	1.8520432455447433	1.1889091264159912	0.0	1.7312036364185048	1.1544082767124786	0.0
62	2.0666666666666664	1.5967604467198417	0.9497765231225058	0.0	1.4846672032461776	0.9107416418179072	0.0	1.4937026060105538	0.4692495517105686	0.0	1.4895910311221034	0.09163671896426574	0.0	1.5036962606800133	-0.041127296074471104	0.0	1.4296916055640836	-0.03753474835830968	0.0	1.5098916289910602	0.03820320648107251	0.0	1.7140734250582341	0.9198748753130954	0.0	1.767495587622051	0.49365184303850757	0.0	1.8517548567141389	0.13510945921796347	0.0	1.7701427460134262	-0.010371025504207031	0.0	1.8457122971234177	-0.006404717229027941	0.0	1.8815459697600947	0.08001086720784935	0.0	1.5655426815929816	1.5741350227585107	0.0	1.6142228720852185	1.8472716225600172	0.0	1.7179128877258847	1.6954192402586796	0.0	1.3707286108033356	1.46494801033789	0.0	1.3137768341613352	1.1575945793205271	0.0	1.5002718905986998	1.2085213520192002	0.0	1.7678613351444636	1.480630335190861	0.0	1.8526974570155295	1.1897550778271175	0.0	1.7342116808390569	1.1576851497045382	0.0
